# xmcd CD database file
#
# Track frame offsets:
#	150
#	27668
#	47308
#	68546
#	109371
#	139890
#	166681
#	190363
#	219045
#	243911
#	270948
#
# Disc length: 4009 seconds
#
# Revision: 1
# Processed by: cddbd v1.5.2PL0 Copyright (c) Steve Scherf et al.
# Submitted via: CDex 1.51
#
DISCID=8e0fa70b
DTITLE=Ornette Coleman - Vol. 212 - Free
DYEAR=1959
DGENRE=Jazz
TTITLE0=Chronology
TTITLE1=Eventually
TTITLE2=Change of the century
TTITLE3=Peace
TTITLE4=Congeniality
TTITLE5=Monk and the nun
TTITLE6=Forerunner
TTITLE7=Free
TTITLE8=Music always
TTITLE9=Una muy bonita
TTITLE10=Ramblin
EXTD=YEAR: 1959
EXTT0=
EXTT1=
EXTT2=
EXTT3=
EXTT4=
EXTT5=
EXTT6=
EXTT7=
EXTT8=
EXTT9=
EXTT10=
PLAYORDER=
